# xmcd
#
# Track frame offsets: 
#        150
#        19869
#        46207
#        70784
#        91308
#        109604
#        135227
#        156965
#        178721
#        201862
#
# Disc length: 2977 seconds
#
# Revision: 0
# Processed by: cddbd v1.5.2PL0 Copyright (c) Steve Scherf et al.
# Submitted via: ExactAudioCopy v1.0b1
#
DISCID=7c0b9f0a
DTITLE=Minh Huyen - Vol.2 - Thu Tinh...
DYEAR=2010
DGENRE=Tru Tinh
TTITLE0=O Hai Dau Noi Nho (Phan Huynh Dieu)
TTITLE1=Me Khu (Bao Phuc, Anh Thoa)
TTITLE2=Thuong Ve Mien Dat Lanh (Minh Ky, Loi: Da Cam)
TTITLE3=Huong Tham (Vu Hoang, Tho: Phan Thi Thanh Nhan)
TTITLE4=Nguoi Hang Xom (To Thanh Tung, Tho: Nguyen Binh)
TTITLE5=Mua Tren Pho Hue (Minh Ky, Loi: Ton Nu Thuy Khuong)
TTITLE6=Tho Tinh Cuoi Mua Thu (Phan Huynh Dieu, Tho: Xuan Quynh)
TTITLE7=Trom Nhin Nhau (Tram Tu Thieng)
TTITLE8=Thuong Ve Mien Trung (Chau Ky)
TTITLE9=Dat Lat Hoang Hon (Minh Ky, Loi: Da Cam)
EXTD=
EXTT0=
EXTT1=
EXTT2=
EXTT3=
EXTT4=
EXTT5=
EXTT6=
EXTT7=
EXTT8=
EXTT9=
PLAYORDER=
